<svg width="11" height="11" viewBox="0 0 11 11" fill="none" xmlns="http://www.w3.org/2000/svg">
<path d="M0.726562 5.78358C0.726562 8.50972 2.93649 10.7198 5.66273 10.7198V9.48572C3.61805 9.48572 1.96061 7.82828 1.96061 5.78358C1.96061 4.7613 2.375 3.83577 3.04496 3.16581L3.19465 3.01612V4.54954H4.42869V0.847412H0.726562V2.08145H2.38413L2.17237 2.29321C1.27904 3.18641 0.726562 4.42046 0.726562 5.78358Z" fill="white"/>
<path d="M10.6002 5.78358C10.6002 3.05746 8.39031 0.847412 5.66406 0.847412V2.08145C7.70875 2.08145 9.36619 3.73889 9.36619 5.78358C9.36619 6.80586 8.9518 7.7314 8.28184 8.40137L8.13215 8.55106V7.01763H6.89811V10.7198H10.6002V9.48572H8.94267L9.15443 9.27396C10.0478 8.38076 10.6002 7.14672 10.6002 5.78358Z" fill="white"/>
</svg>
