<svg width="32" height="32" viewBox="0 0 32 32" fill="none" xmlns="http://www.w3.org/2000/svg">
<circle cx="15.9412" cy="16.4153" r="15.4255" fill="#8B32FE"/>
<path d="M17.7395 12.2119H14.1406V25.6706H17.7395V12.2119Z" fill="black"/>
<path d="M15.9373 11.2334C15.8712 11.2334 15.8052 11.2293 15.7391 11.2252C15.6731 11.2169 15.6071 11.2086 15.541 11.1963C15.475 11.1839 15.409 11.1674 15.3471 11.1467C15.2852 11.1261 15.2191 11.1055 15.1572 11.0807C15.0953 11.0559 15.0334 11.0271 14.9756 10.994C14.9178 10.961 14.8601 10.928 14.8023 10.8909C14.7486 10.8537 14.695 10.8124 14.6413 10.7712C14.5918 10.7299 14.5423 10.6845 14.4927 10.635C14.4473 10.5896 14.402 10.5401 14.3566 10.4864C14.3153 10.4327 14.274 10.3832 14.2369 10.3254C14.1997 10.2718 14.1667 10.214 14.1337 10.1521C14.1007 10.0943 14.0718 10.0324 14.047 9.9705C14.0223 9.9086 13.9975 9.84669 13.981 9.78065C13.9603 9.71875 13.9438 9.65271 13.9315 9.58668C13.9191 9.52064 13.9067 9.45461 13.9026 9.38857C13.9026 9.33079 13.8984 9.26476 13.8984 9.19873C13.8984 9.13269 13.9026 9.06666 13.9067 9.00062C13.9149 8.93459 13.9232 8.86855 13.9356 8.80252C13.948 8.73648 13.9645 8.67045 13.9851 8.60854C14.0057 8.54664 14.0264 8.4806 14.0511 8.41869C14.0759 8.35679 14.1048 8.29488 14.1378 8.2371C14.1708 8.17932 14.2038 8.12154 14.241 8.06376C14.2781 8.01011 14.3194 7.95645 14.3607 7.9028C14.402 7.84915 14.4473 7.80375 14.4969 7.75422C14.5423 7.70882 14.5918 7.66342 14.6455 7.61803C14.6991 7.57675 14.7486 7.53548 14.8064 7.49834C14.8601 7.46119 14.9178 7.42818 14.9798 7.39516C15.0417 7.36214 15.0994 7.33325 15.1613 7.30849C15.2233 7.28373 15.2852 7.25896 15.3512 7.24246C15.4131 7.22182 15.4791 7.20531 15.5452 7.19293C15.6112 7.18055 15.6772 7.16817 15.7433 7.16404C15.8011 7.16404 15.8712 7.15991 15.9373 7.15991C16.0033 7.15991 16.0693 7.16404 16.1354 7.16817C16.2014 7.17642 16.2674 7.18468 16.3335 7.19706C16.3995 7.20944 16.4655 7.22595 16.5274 7.24658C16.5893 7.26722 16.6554 7.28785 16.7173 7.31262C16.7792 7.33738 16.8411 7.36627 16.8989 7.39929C16.9567 7.4323 17.0144 7.46532 17.0722 7.50247C17.13 7.53961 17.1795 7.58088 17.2332 7.62215C17.2827 7.66342 17.3322 7.70882 17.3818 7.75835C17.4272 7.80375 17.4726 7.85327 17.518 7.90693C17.5592 7.96058 17.6005 8.01011 17.6376 8.06789C17.6748 8.12154 17.7078 8.17932 17.7408 8.24123C17.7738 8.29901 17.8027 8.36091 17.8275 8.42282C17.8523 8.48473 17.877 8.54664 17.8935 8.61267C17.9142 8.67458 17.9307 8.74061 17.943 8.80665C17.9554 8.87268 17.9678 8.93872 17.9719 9.00475C17.9802 9.07078 17.9802 9.13682 17.9802 9.20285C17.9802 9.26889 17.9761 9.33492 17.9719 9.40096C17.9678 9.46699 17.9554 9.53303 17.943 9.59906C17.9307 9.66509 17.9142 9.73113 17.8935 9.79304C17.8729 9.85494 17.8523 9.92098 17.8275 9.98289C17.8027 10.0448 17.7738 10.1067 17.7408 10.1645C17.7078 10.2223 17.6748 10.28 17.6376 10.3378C17.6005 10.3915 17.5592 10.4451 17.518 10.4988C17.4767 10.5524 17.4313 10.5978 17.3818 10.6474C17.3364 10.6928 17.2868 10.7382 17.2332 10.7836C17.1795 10.8248 17.13 10.8661 17.0722 10.9032C17.0186 10.9404 16.9608 10.9734 16.8989 11.0064C16.8411 11.0394 16.7792 11.0683 16.7173 11.0931C16.6554 11.1179 16.5935 11.1426 16.5274 11.1591C16.4655 11.1798 16.3995 11.1963 16.3335 11.2086C16.2674 11.221 16.2014 11.2334 16.1354 11.2375C16.0693 11.2334 16.0033 11.2334 15.9373 11.2334Z" fill="black"/>
</svg>
